<svg width="23" height="22" viewBox="0 0 23 22" fill="none" xmlns="http://www.w3.org/2000/svg">
<path fill-rule="evenodd" clip-rule="evenodd" d="M7.79785 0H16.0479C19.8442 0 22.9229 3.07862 22.9229 6.875V15.125C22.9229 18.9214 19.8442 22 16.0479 22H7.79785C4.00148 22 0.922852 18.9214 0.922852 15.125V6.875C0.922852 3.07862 4.00148 0 7.79785 0ZM16.0479 19.9375C18.7016 19.9375 20.8604 17.7787 20.8604 15.125V6.875C20.8604 4.22125 18.7016 2.0625 16.0479 2.0625H7.79785C5.1441 2.0625 2.98535 4.22125 2.98535 6.875V15.125C2.98535 17.7787 5.1441 19.9375 7.79785 19.9375H16.0479Z" fill="white"/>
<path fill-rule="evenodd" clip-rule="evenodd" d="M6.42285 11C6.42285 7.96263 8.88548 5.5 11.9229 5.5C14.9602 5.5 17.4229 7.96263 17.4229 11C17.4229 14.0374 14.9602 16.5 11.9229 16.5C8.88548 16.5 6.42285 14.0374 6.42285 11ZM8.48535 11C8.48535 12.8948 10.0281 14.4375 11.9229 14.4375C13.8176 14.4375 15.3604 12.8948 15.3604 11C15.3604 9.10388 13.8176 7.5625 11.9229 7.5625C10.0281 7.5625 8.48535 9.10388 8.48535 11Z" fill="white"/>
<circle cx="17.8354" cy="5.08737" r="0.732875" fill="white"/>
</svg>
