<svg width="22" height="22" viewBox="0 0 22 22" fill="none" xmlns="http://www.w3.org/2000/svg">
<g opacity="0.5">
<path d="M13.2562 1.10829C11.103 0.615806 8.84764 0.843956 6.8367 1.75769C5.42134 2.4008 4.18216 3.35848 3.20785 4.54778V1.83356C3.20785 1.32729 2.79744 0.916889 2.29118 0.916889C1.78492 0.916889 1.37451 1.32729 1.37451 1.83356V7.33356C1.37451 7.83982 1.78492 8.25022 2.29118 8.25022H7.79118C8.29744 8.25022 8.70785 7.83982 8.70785 7.33356C8.70785 6.82729 8.29744 6.41689 7.79118 6.41689H4.10692C4.96035 5.11412 6.16831 4.0751 7.59511 3.4268C9.24042 2.6792 11.0857 2.49253 12.8474 2.89547C14.6091 3.29842 16.1898 4.26868 17.3465 5.65717C18.5033 7.04567 19.1721 8.77557 19.2502 10.5811C19.2721 11.0869 19.6999 11.4791 20.2057 11.4573C20.7115 11.4354 21.1037 11.0076 21.0818 10.5018C20.9863 8.29508 20.1689 6.18075 18.7551 4.4837C17.3413 2.78665 15.4094 1.60078 13.2562 1.10829Z" fill="white"/>
<path d="M2.74811 11.4101C2.72157 10.9045 2.29022 10.5162 1.78466 10.5427C1.27909 10.5692 0.890762 11.0006 0.917299 11.5062C1.03271 13.7048 1.86455 15.8053 3.28581 17.4867C4.70706 19.1682 6.6396 20.3383 8.7883 20.8184C10.937 21.2984 13.1838 21.062 15.1855 20.1452C16.5917 19.5012 17.8226 18.5463 18.7912 17.3624V20.1669C18.7912 20.6732 19.2016 21.0836 19.7078 21.0836C20.2141 21.0836 20.6245 20.6732 20.6245 20.1669V14.6669C20.6245 14.1606 20.2141 13.7502 19.7078 13.7502H14.2078C13.7016 13.7502 13.2912 14.1606 13.2912 14.6669C13.2912 15.1732 13.7016 15.5836 14.2078 15.5836H17.8313C16.9861 16.8396 15.8082 17.8435 14.4221 18.4784C12.7843 19.2285 10.9461 19.4219 9.18803 19.0291C7.43 18.6364 5.84882 17.679 4.68598 16.3033C3.52314 14.9275 2.84254 13.209 2.74811 11.4101Z" fill="white"/>
</g>
</svg>
